<svg width="139" height="126" viewBox="0 0 139 126" fill="none" xmlns="http://www.w3.org/2000/svg">
<path d="M8.45455 93V23.1818H16.9091V85.5H49.3636V93H8.45455Z" fill="black"/>
<path d="M61.3636 50.6364H69.4091V106.818C69.4091 110.045 68.8523 112.841 67.7386 115.205C66.6477 117.568 64.9886 119.398 62.7614 120.693C60.5568 121.989 57.7727 122.636 54.4091 122.636C54.1364 122.636 53.8636 122.636 53.5909 122.636C53.3182 122.636 53.0455 122.636 52.7727 122.636V115.136C53.0455 115.136 53.2955 115.136 53.5227 115.136C53.75 115.136 54 115.136 54.2727 115.136C56.7273 115.136 58.5227 114.409 59.6591 112.955C60.7955 111.523 61.3636 109.477 61.3636 106.818V50.6364ZM65.3182 41.9091C63.75 41.9091 62.3977 41.375 61.2614 40.3068C60.1477 39.2386 59.5909 37.9545 59.5909 36.4545C59.5909 34.9545 60.1477 33.6705 61.2614 32.6023C62.3977 31.5341 63.75 31 65.3182 31C66.8864 31 68.2273 31.5341 69.3409 32.6023C70.4773 33.6705 71.0455 34.9545 71.0455 36.4545C71.0455 37.9545 70.4773 39.2386 69.3409 40.3068C68.2273 41.375 66.8864 41.9091 65.3182 41.9091Z" fill="black"/>
<path d="M123.636 50.6364C123.227 47.1818 121.568 44.5 118.659 42.5909C115.75 40.6818 112.182 39.7273 107.955 39.7273C104.864 39.7273 102.159 40.2273 99.8409 41.2273C97.5455 42.2273 95.75 43.6023 94.4545 45.3523C93.1818 47.1023 92.5455 49.0909 92.5455 51.3182C92.5455 53.1818 92.9886 54.7841 93.875 56.125C94.7841 57.4432 95.9432 58.5455 97.3523 59.4318C98.7614 60.2955 100.239 61.0114 101.784 61.5795C103.33 62.125 104.75 62.5682 106.045 62.9091L113.136 64.8182C114.955 65.2955 116.977 65.9545 119.205 66.7955C121.455 67.6364 123.602 68.7841 125.648 70.2386C127.716 71.6705 129.42 73.5114 130.761 75.7614C132.102 78.0114 132.773 80.7727 132.773 84.0455C132.773 87.8182 131.784 91.2273 129.807 94.2727C127.852 97.3182 124.989 99.7386 121.216 101.534C117.466 103.33 112.909 104.227 107.545 104.227C102.545 104.227 98.2159 103.42 94.5568 101.807C90.9205 100.193 88.0568 97.9432 85.9659 95.0568C83.8977 92.1705 82.7273 88.8182 82.4545 85H91.1818C91.4091 87.6364 92.2955 89.8182 93.8409 91.5455C95.4091 93.25 97.3864 94.5227 99.7727 95.3636C102.182 96.1818 104.773 96.5909 107.545 96.5909C110.773 96.5909 113.67 96.0682 116.239 95.0227C118.807 93.9545 120.841 92.4773 122.341 90.5909C123.841 88.6818 124.591 86.4545 124.591 83.9091C124.591 81.5909 123.943 79.7045 122.648 78.25C121.352 76.7955 119.648 75.6136 117.534 74.7045C115.42 73.7955 113.136 73 110.682 72.3182L102.091 69.8636C96.6364 68.2955 92.3182 66.0568 89.1364 63.1477C85.9545 60.2386 84.3636 56.4318 84.3636 51.7273C84.3636 47.8182 85.4205 44.4091 87.5341 41.5C89.6705 38.5682 92.5341 36.2955 96.125 34.6818C99.7386 33.0455 103.773 32.2273 108.227 32.2273C112.727 32.2273 116.727 33.0341 120.227 34.6477C123.727 36.2386 126.5 38.4205 128.545 41.1932C130.614 43.9659 131.705 47.1136 131.818 50.6364H123.636Z" fill="black"/>
</svg>
